Muli-Light.ufo
<glyph name="numbersign" format="1">
  <advance width="1349"/>
  <unicode hex="0023"/>
  <outline>
    <contour>
      <point x="490" y="605" type="line"/>
      <point x="799" y="605" type="line"/>
      <point x="859" y="914" type="line"/>
      <point x="551" y="914" type="line"/>
    </contour>
    <contour>
      <point x="277" y="75" type="line"/>
      <point x="360" y="514" type="line"/>
      <point x="105" y="514" type="line"/>
      <point x="112" y="605" type="line"/>
      <point x="378" y="605" type="line"/>
      <point x="436" y="914" type="line"/>
      <point x="177" y="914" type="line"/>
      <point x="186" y="1006" type="line"/>
      <point x="453" y="1006" type="line"/>
      <point x="530" y="1410" type="line"/>
      <point x="645" y="1410" type="line"/>
      <point x="569" y="1006" type="line"/>
      <point x="876" y="1006" type="line"/>
      <point x="953" y="1410" type="line"/>
      <point x="1064" y="1410" type="line"/>
      <point x="986" y="1006" type="line"/>
      <point x="1235" y="1006" type="line"/>
      <point x="1223" y="914" type="line"/>
      <point x="970" y="914" type="line"/>
      <point x="911" y="605" type="line"/>
      <point x="1165" y="605" type="line"/>
      <point x="1154" y="514" type="line"/>
      <point x="895" y="514" type="line"/>
      <point x="810" y="75" type="line"/>
      <point x="700" y="75" type="line"/>
      <point x="782" y="514" type="line"/>
      <point x="474" y="514" type="line"/>
      <point x="387" y="75" type="line"/>
    </contour>
  </outline>
</glyph>
<glyph name="percent" format="1">
  <advance width="1996"/>
  <unicode hex="0025"/>
  <outline>
    <contour>
      <point x="1523" y="-10" type="curve" smooth="yes"/>
      <point x="1303" y="-10"/>
      <point x="1183" y="149"/>
      <point x="1183" y="412" type="curve" smooth="yes"/>
      <point x="1183" y="677"/>
      <point x="1304" y="842"/>
      <point x="1524" y="842" type="curve" smooth="yes"/>
      <point x="1739" y="842"/>
      <point x="1855" y="679"/>
      <point x="1855" y="413" type="curve" smooth="yes"/>
      <point x="1855" y="150"/>
      <point x="1737" y="-10"/>
    </contour>
    <contour>
      <point x="1523" y="90" type="curve" smooth="yes"/>
      <point x="1662" y="90"/>
      <point x="1730" y="205"/>
      <point x="1730" y="413" type="curve" smooth="yes"/>
      <point x="1730" y="624"/>
      <point x="1664" y="742"/>
      <point x="1524" y="742" type="curve" smooth="yes"/>
      <point x="1377" y="742"/>
      <point x="1309" y="622"/>
      <point x="1309" y="412" type="curve" smooth="yes"/>
      <point x="1309" y="203"/>
      <point x="1379" y="90"/>
    </contour>
    <contour>
      <point x="597" y="0" type="line"/>
      <point x="1290" y="1456" type="line"/>
      <point x="1408" y="1456" type="line"/>
      <point x="715" y="0" type="line"/>
    </contour>
    <contour>
      <point x="480" y="615" type="curve" smooth="yes"/>
      <point x="260" y="615"/>
      <point x="140" y="769"/>
      <point x="140" y="1036" type="curve" smooth="yes"/>
      <point x="140" y="1306"/>
      <point x="261" y="1466"/>
      <point x="481" y="1466" type="curve" smooth="yes"/>
      <point x="696" y="1466"/>
      <point x="813" y="1307"/>
      <point x="813" y="1037" type="curve" smooth="yes"/>
      <point x="813" y="770"/>
      <point x="694" y="615"/>
    </contour>
    <contour>
      <point x="481" y="714" type="curve" smooth="yes"/>
      <point x="620" y="714"/>
      <point x="687" y="829"/>
      <point x="687" y="1038" type="curve" smooth="yes"/>
      <point x="687" y="1248"/>
      <point x="621" y="1366"/>
      <point x="481" y="1366" type="curve" smooth="yes"/>
      <point x="335" y="1366"/>
      <point x="266" y="1247"/>
      <point x="266" y="1037" type="curve" smooth="yes"/>
      <point x="266" y="828"/>
      <point x="336" y="714"/>
    </contour>
  </outline>
</glyph>
<glyph name="parenleft" format="1">
  <advance width="600"/>
  <unicode hex="0028"/>
  <outline>
    <contour>
      <point x="416" y="-174" type="line"/>
      <point x="263" y="61"/>
      <point x="151" y="351"/>
      <point x="151" y="662" type="curve" smooth="yes"/>
      <point x="151" y="984"/>
      <point x="248" y="1251"/>
      <point x="415" y="1516" type="curve"/>
      <point x="551" y="1516" type="line"/>
      <point x="385" y="1251"/>
      <point x="292" y="973"/>
      <point x="292" y="666" type="curve" smooth="yes"/>
      <point x="292" y="381"/>
      <point x="392" y="74"/>
      <point x="552" y="-174" type="curve"/>
    </contour>
  </outline>
</glyph>
<glyph name="comma" format="1">
  <advance width="448"/>
  <unicode hex="002C"/>
  <outline>
    <contour>
      <point x="85" y="-260" type="line"/>
      <point x="191" y="193" type="line"/>
      <point x="354" y="193" type="line"/>
      <point x="195" y="-260" type="line"/>
    </contour>
  </outline>
</glyph>
<glyph name="zero" format="1">
  <advance width="1204"/>
  <unicode hex="0030"/>
  <outline>
    <contour>
      <point x="609" y="-23" type="curve" smooth="yes"/>
      <point x="291" y="-23"/>
      <point x="124" y="256"/>
      <point x="124" y="727" type="curve" smooth="yes"/>
      <point x="124" y="1212"/>
      <point x="291" y="1483"/>
      <point x="610" y="1483" type="curve" smooth="yes"/>
      <point x="922" y="1483"/>
      <point x="1080" y="1209"/>
      <point x="1080" y="727" type="curve" smooth="yes"/>
      <point x="1080" y="256"/>
      <point x="922" y="-23"/>
    </contour>
    <contour>
      <point x="610" y="101" type="curve" smooth="yes"/>
      <point x="828" y="101"/>
      <point x="926" y="336"/>
      <point x="926" y="727" type="curve" smooth="yes"/>
      <point x="926" y="1116"/>
      <point x="828" y="1359"/>
      <point x="610" y="1359" type="curve" smooth="yes"/>
      <point x="382" y="1359"/>
      <point x="277" y="1116"/>
      <point x="277" y="727" type="curve" smooth="yes"/>
      <point x="277" y="336"/>
      <point x="382" y="101"/>
    </contour>
  </outline>
</glyph>
<glyph name="two" format="1">
  <advance width="1225"/>
  <unicode hex="0032"/>
  <outline>
    <contour>
      <point x="592" y="1483" type="curve" smooth="yes"/>
      <point x="900.419" y="1483"/>
      <point x="1040.06" y="1287.84"/>
      <point x="1040.06" y="1063.76" type="curve" smooth="yes"/>
      <point x="1040.06" y="870.036"/>
      <point x="935.619" y="729.41"/>
      <point x="767" y="546" type="curve"/>
      <point x="383" y="122" type="line"/>
      <point x="1035" y="122" type="line"/>
      <point x="1035" y="0" type="line"/>
      <point x="214" y="0" type="line"/>
      <point x="214" y="120" type="line"/>
      <point x="681" y="635" type="line" smooth="yes"/>
      <point x="836.24" y="805.861"/>
      <point x="897.107" y="910.948"/>
      <point x="897.107" y="1050.78" type="curve" smooth="yes"/>
      <point x="897.107" y="1224.95"/>
      <point x="806.641" y="1357"/>
      <point x="587" y="1357" type="curve" smooth="yes"/>
      <point x="437" y="1357"/>
      <point x="292" y="1284"/>
      <point x="224" y="1246" type="curve"/>
      <point x="174" y="1360" type="line"/>
      <point x="247" y="1403"/>
      <point x="404" y="1483"/>
    </contour>
  </outline>
</glyph>
<glyph name="eight" format="1">
  <advance width="1205"/>
  <unicode hex="0038"/>
  <outline>
    <contour>
      <point x="604" y="832" type="curve"/>
      <point x="793" y="867"/>
      <point x="900" y="962"/>
      <point x="900" y="1116" type="curve" smooth="yes"/>
      <point x="900" y="1279"/>
      <point x="761" y="1366"/>
      <point x="605" y="1366" type="curve" smooth="yes"/>
      <point x="451" y="1366"/>
      <point x="311" y="1279"/>
      <point x="311" y="1118" type="curve" smooth="yes"/>
      <point x="311" y="962"/>
      <point x="418" y="867"/>
    </contour>
    <contour>
      <point x="604" y="101" type="curve" smooth="yes"/>
      <point x="792" y="101"/>
      <point x="927" y="200"/>
      <point x="927" y="379" type="curve" smooth="yes"/>
      <point x="927" y="554"/>
      <point x="795" y="651"/>
      <point x="602" y="689" type="curve"/>
      <point x="416" y="651"/>
      <point x="281" y="550"/>
      <point x="281" y="379" type="curve" smooth="yes"/>
      <point x="281" y="198"/>
      <point x="419" y="101"/>
    </contour>
    <contour>
      <point x="603" y="-23" type="curve" smooth="yes"/>
      <point x="362" y="-23"/>
      <point x="134" y="117"/>
      <point x="134" y="371" type="curve" smooth="yes"/>
      <point x="134" y="561"/>
      <point x="248" y="702"/>
      <point x="456" y="762" type="curve"/>
      <point x="276" y="816"/>
      <point x="169" y="941"/>
      <point x="169" y="1117" type="curve" smooth="yes"/>
      <point x="169" y="1347"/>
      <point x="365" y="1483"/>
      <point x="605" y="1483" type="curve" smooth="yes"/>
      <point x="839" y="1483"/>
      <point x="1041" y="1348"/>
      <point x="1041" y="1120" type="curve" smooth="yes"/>
      <point x="1041" y="944"/>
      <point x="933" y="819"/>
      <point x="753" y="764" type="curve"/>
      <point x="965" y="702"/>
      <point x="1075" y="563"/>
      <point x="1075" y="372" type="curve" smooth="yes"/>
      <point x="1075" y="119"/>
      <point x="852" y="-23"/>
    </contour>
  </outline>
</glyph>
<glyph name="colon" format="1">
  <advance width="508"/>
  <unicode hex="003A"/>
  <outline>
    <contour>
      <point x="167" y="845" type="line"/>
      <point x="167" y="1041" type="line"/>
      <point x="353" y="1041" type="line"/>
      <point x="353" y="845" type="line"/>
    </contour>
    <contour>
      <point x="167" y="4" type="line"/>
      <point x="167" y="201" type="line"/>
      <point x="353" y="201" type="line"/>
      <point x="353" y="4" type="line"/>
    </contour>
  </outline>
</glyph>
<glyph name="semicolon" format="1">
  <advance width="546"/>
  <unicode hex="003B"/>
  <outline>
    <contour>
      <point x="156" y="830" type="line"/>
      <point x="156" y="1027" type="line"/>
      <point x="364" y="1027" type="line"/>
      <point x="364" y="830" type="line"/>
    </contour>
    <contour>
      <point x="111" y="-260" type="line"/>
      <point x="216" y="193" type="line"/>
      <point x="380" y="193" type="line"/>
      <point x="221" y="-260" type="line"/>
    </contour>
  </outline>
</glyph>
<glyph name="less" format="1">
  <advance width="1150"/>
  <unicode hex="003C"/>
  <outline>
    <contour>
      <point x="931" y="88" type="line"/>
      <point x="76" y="549" type="line"/>
      <point x="76" y="633" type="line"/>
      <point x="936" y="1045" type="line"/>
      <point x="936" y="908" type="line"/>
      <point x="244" y="585" type="line"/>
      <point x="931" y="223" type="line"/>
    </contour>
  </outline>
</glyph>
<glyph name="greater" format="1">
  <advance width="1149"/>
  <unicode hex="003E"/>
  <outline>
    <contour>
      <point x="214" y="87" type="line"/>
      <point x="214" y="223" type="line"/>
      <point x="901" y="551" type="line"/>
      <point x="219" y="908" type="line"/>
      <point x="219" y="1044" type="line"/>
      <point x="1074" y="587" type="line"/>
      <point x="1074" y="506" type="line"/>
    </contour>
  </outline>
</glyph>
<glyph name="question" format="1">
  <advance width="1086"/>
  <unicode hex="003F"/>
  <outline>
    <contour>
      <point x="348" y="-12" type="line"/>
      <point x="348" y="182" type="line"/>
      <point x="523" y="182" type="line"/>
      <point x="523" y="-12" type="line"/>
    </contour>
    <contour>
      <point x="376" y="358" type="line"/>
      <point x="376" y="504" type="line" smooth="yes"/>
      <point x="376" y="743"/>
      <point x="768" y="877"/>
      <point x="768" y="1127" type="curve" smooth="yes"/>
      <point x="768" y="1287"/>
      <point x="642" y="1352"/>
      <point x="486" y="1352" type="curve" smooth="yes"/>
      <point x="362" y="1352"/>
      <point x="253" y="1302"/>
      <point x="205" y="1274" type="curve"/>
      <point x="205" y="1410" type="line"/>
      <point x="321" y="1465"/>
      <point x="449" y="1476"/>
      <point x="505" y="1476" type="curve" smooth="yes"/>
      <point x="754" y="1476"/>
      <point x="915" y="1364"/>
      <point x="915" y="1135" type="curve" smooth="yes"/>
      <point x="915" y="837"/>
      <point x="490" y="695"/>
      <point x="490" y="479" type="curve" smooth="yes"/>
      <point x="490" y="358" type="line"/>
    </contour>
  </outline>
</glyph>
<glyph name="A" format="1">
  <advance width="1364"/>
  <unicode hex="0041"/>
  <outline>
    <contour>
      <point x="682" y="1456" type="move" name="top"/>
    </contour>
    <contour>
      <point x="399" y="509" type="curve"/>
      <point x="965" y="509" type="line"/>
      <point x="871.102" y="777.102"/>
      <point x="776.441" y="1044.44"/>
      <point x="681" y="1311" type="curve"/>
      <point x="587" y="1043.67"/>
      <point x="493" y="776.333"/>
    </contour>
    <contour>
      <point x="50" y="0" type="line"/>
      <point x="597" y="1456" type="line"/>
      <point x="766" y="1456" type="line"/>
      <point x="1315" y="0" type="line"/>
      <point x="1154" y="0" type="line"/>
      <point x="1008" y="394" type="line"/>
      <point x="359" y="394" type="line"/>
      <point x="214" y="0" type="line"/>
    </contour>
  </outline>
</glyph>
<glyph name="B" format="1">
  <advance width="1354"/>
  <unicode hex="0042"/>
  <outline>
    <contour>
      <point x="648" y="1456" type="move" name="top"/>
    </contour>
    <contour>
      <point x="364" y="817" type="line"/>
      <point x="665" y="817" type="line" smooth="yes"/>
      <point x="888" y="817"/>
      <point x="1005" y="898"/>
      <point x="1005" y="1089" type="curve" smooth="yes"/>
      <point x="1005" y="1264"/>
      <point x="873" y="1332"/>
      <point x="625" y="1332" type="curve" smooth="yes"/>
      <point x="364" y="1332" type="line"/>
    </contour>
    <contour>
      <point x="363" y="124" type="line"/>
      <point x="706" y="124" type="line" smooth="yes"/>
      <point x="947" y="124"/>
      <point x="1075" y="221"/>
      <point x="1075" y="402" type="curve" smooth="yes"/>
      <point x="1075" y="606"/>
      <point x="965" y="695"/>
      <point x="673" y="695" type="curve" smooth="yes"/>
      <point x="363" y="695" type="line"/>
    </contour>
    <contour>
      <point x="213" y="0" type="line"/>
      <point x="213" y="1456" type="line"/>
      <point x="612" y="1456" type="line" smooth="yes"/>
      <point x="924" y="1456"/>
      <point x="1160" y="1371"/>
      <point x="1160" y="1100" type="curve" smooth="yes"/>
      <point x="1160" y="915"/>
      <point x="1070" y="799"/>
      <point x="898" y="767" type="curve"/>
      <point x="1106" y="741"/>
      <point x="1231" y="610"/>
      <point x="1231" y="399" type="curve" smooth="yes"/>
      <point x="1231" y="159"/>
      <point x="1058" y="0"/>
      <point x="722" y="0" type="curve" smooth="yes"/>
    </contour>
  </outline>
</glyph>
<glyph name="D" format="1">
  <advance width="1531"/>
  <unicode hex="0044"/>
  <outline>
    <contour>
      <point x="718" y="1456" type="move" name="top"/>
    </contour>
    <contour>
      <point x="213" y="0" type="line"/>
      <point x="213" y="1456" type="line"/>
      <point x="579" y="1456" type="line" smooth="yes"/>
      <point x="1111" y="1456"/>
      <point x="1407" y="1216"/>
      <point x="1407" y="719" type="curve" smooth="yes"/>
      <point x="1407" y="255"/>
      <point x="1134" y="0"/>
      <point x="622" y="0" type="curve" smooth="yes"/>
    </contour>
    <contour>
      <point x="362" y="124" type="line"/>
      <point x="628" y="124" type="line" smooth="yes"/>
      <point x="1040" y="124"/>
      <point x="1251" y="337"/>
      <point x="1251" y="719" type="curve" smooth="yes"/>
      <point x="1251" y="1129"/>
      <point x="1028" y="1332"/>
      <point x="588" y="1332" type="curve" smooth="yes"/>
      <point x="362" y="1332" type="line"/>
    </contour>
  </outline>
</glyph>
<glyph name="F" format="1">
  <advance width="1103"/>
  <unicode hex="0046"/>
  <outline>
    <contour>
      <point x="634" y="1456" type="move" name="top"/>
    </contour>
    <contour>
      <point x="213" y="0" type="line"/>
      <point x="213" y="1456" type="line"/>
      <point x="1021" y="1456" type="line"/>
      <point x="1021" y="1332" type="line"/>
      <point x="362" y="1332" type="line"/>
      <point x="362" y="808" type="line"/>
      <point x="970" y="808" type="line"/>
      <point x="970" y="684" type="line"/>
      <point x="362" y="684" type="line"/>
      <point x="362" y="0" type="line"/>
    </contour>
  </outline>
</glyph>
<glyph name="G" format="1">
  <advance width="1520"/>
  <unicode hex="0047"/>
  <outline>
    <contour>
      <point x="845" y="1456" type="move" name="top"/>
    </contour>
    <contour>
      <point x="839" y="-21" type="curve" smooth="yes"/>
      <point x="376" y="-21"/>
      <point x="109" y="265"/>
      <point x="109" y="705" type="curve" smooth="yes"/>
      <point x="109" y="1167"/>
      <point x="405" y="1481"/>
      <point x="851" y="1481" type="curve" smooth="yes"/>
      <point x="977" y="1481"/>
      <point x="1150" y="1464"/>
      <point x="1325" y="1335" type="curve"/>
      <point x="1263" y="1230" type="line"/>
      <point x="1111" y="1332"/>
      <point x="972" y="1358"/>
      <point x="853" y="1358" type="curve" smooth="yes"/>
      <point x="495" y="1358"/>
      <point x="263" y="1093"/>
      <point x="263" y="709" type="curve" smooth="yes"/>
      <point x="263" y="345"/>
      <point x="471" y="102"/>
      <point x="843" y="102" type="curve" smooth="yes"/>
      <point x="964" y="102"/>
      <point x="1109" y="121"/>
      <point x="1209" y="163" type="curve"/>
      <point x="1209" y="624" type="line"/>
      <point x="821" y="624" type="line"/>
      <point x="821" y="749" type="line"/>
      <point x="1353" y="749" type="line"/>
      <point x="1353" y="82" type="line"/>
      <point x="1197" y="9"/>
      <point x="1011" y="-21"/>
    </contour>
  </outline>
</glyph>
<glyph name="H" format="1">
  <advance width="1558"/>
  <unicode hex="0048"/>
  <outline>
    <contour>
      <point x="785" y="1456" type="move" name="top"/>
    </contour>
    <contour>
      <point x="213" y="0" type="line"/>
      <point x="213" y="1456" type="line"/>
      <point x="365" y="1456" type="line"/>
      <point x="365" y="806" type="line"/>
      <point x="1198" y="806" type="line"/>
      <point x="1198" y="1456" type="line"/>
      <point x="1346" y="1456" type="line"/>
      <point x="1346" y="0" type="line"/>
      <point x="1197" y="0" type="line"/>
      <point x="1197" y="683" type="line"/>
      <point x="363" y="683" type="line"/>
      <point x="363" y="0" type="line"/>
    </contour>
  </outline>
</glyph>
<glyph name="J" format="1">
  <advance width="727"/>
  <unicode hex="004A"/>
  <outline>
    <contour>
      <point x="411" y="1456" type="move" name="top"/>
    </contour>
    <contour>
      <point x="161" y="-319" type="curve" smooth="yes"/>
      <point x="104" y="-319"/>
      <point x="45" y="-308"/>
      <point x="-4" y="-297" type="curve"/>
      <point x="11" y="-179" type="line"/>
      <point x="54" y="-187"/>
      <point x="103" y="-196"/>
      <point x="151" y="-196" type="curve" smooth="yes"/>
      <point x="321" y="-196"/>
      <point x="366" y="-125"/>
      <point x="366" y="126" type="curve" smooth="yes"/>
      <point x="366" y="1456" type="line"/>
      <point x="515" y="1456" type="line"/>
      <point x="515" y="126" type="line" smooth="yes"/>
      <point x="515" y="-222"/>
      <point x="396" y="-319"/>
    </contour>
  </outline>
</glyph>
<glyph name="R" format="1">
  <advance width="1367"/>
  <unicode hex="0052"/>
  <outline>
    <contour>
      <point x="622" y="1456" type="move" name="top"/>
    </contour>
    <contour>
      <point x="363" y="783" type="line"/>
      <point x="676" y="783" type="line" smooth="yes"/>
      <point x="887" y="783"/>
      <point x="1003" y="868"/>
      <point x="1003" y="1067" type="curve" smooth="yes"/>
      <point x="1003" y="1261.04"/>
      <point x="905.188" y="1332.36"/>
      <point x="691.837" y="1332.36" type="curve" smooth="yes"/>
      <point x="683.086" y="1332.36"/>
      <point x="674.141" y="1332.24"/>
      <point x="665" y="1332" type="curve" smooth="yes"/>
      <point x="363" y="1332" type="line"/>
    </contour>
    <contour>
      <point x="213" y="0" type="line"/>
      <point x="213" y="1456" type="line"/>
      <point x="663" y="1456" type="line" smooth="yes"/>
      <point x="973" y="1456"/>
      <point x="1155" y="1364"/>
      <point x="1155" y="1073" type="curve" smooth="yes"/>
      <point x="1155" y="887"/>
      <point x="1064" y="745"/>
      <point x="864" y="716" type="curve"/>
      <point x="1007" y="683"/>
      <point x="1043" y="605"/>
      <point x="1106" y="435" type="curve" smooth="yes"/>
      <point x="1267" y="0" type="line"/>
      <point x="1115" y="0" type="line"/>
      <point x="963" y="418" type="line" smooth="yes"/>
      <point x="893" y="609"/>
      <point x="858" y="660"/>
      <point x="686" y="660" type="curve" smooth="yes"/>
      <point x="362" y="660" type="line"/>
      <point x="362" y="0" type="line"/>
    </contour>
  </outline>
</glyph>
<glyph name="U" format="1">
  <advance width="1487"/>
  <unicode hex="0055"/>
  <outline>
    <contour>
      <point x="747" y="1456" type="move" name="top"/>
    </contour>
    <contour>
      <point x="738" y="-21" type="curve" smooth="yes"/>
      <point x="340" y="-21"/>
      <point x="173" y="194"/>
      <point x="173" y="537" type="curve" smooth="yes"/>
      <point x="173" y="1456" type="line"/>
      <point x="322" y="1456" type="line"/>
      <point x="322" y="531" type="line" smooth="yes"/>
      <point x="322" y="242"/>
      <point x="467" y="102"/>
      <point x="739" y="102" type="curve" smooth="yes"/>
      <point x="1007" y="102"/>
      <point x="1156" y="241"/>
      <point x="1156" y="529" type="curve" smooth="yes"/>
      <point x="1156" y="1456" type="line"/>
      <point x="1305" y="1456" type="line"/>
      <point x="1305" y="538" type="line"/>
      <point x="1303" y="191"/>
      <point x="1129" y="-21"/>
    </contour>
  </outline>
</glyph>
<glyph name="V" format="1">
  <advance width="1365"/>
  <unicode hex="0056"/>
  <outline>
    <contour>
      <point x="602" y="0" type="line"/>
      <point x="62" y="1456" type="line"/>
      <point x="224" y="1456" type="line"/>
      <point x="377.997" y="1023.66"/>
      <point x="532.436" y="591.769"/>
      <point x="686" y="159" type="curve"/>
      <point x="835.779" y="594.888"/>
      <point x="992.715" y="1023.62"/>
      <point x="1146" y="1456" type="curve"/>
      <point x="1303" y="1456" type="line"/>
      <point x="767" y="0" type="line"/>
    </contour>
  </outline>
</glyph>
<glyph name="W" format="1">
  <advance width="2029"/>
  <unicode hex="0057"/>
  <outline>
    <contour>
      <point x="1027" y="1456" type="move" name="top"/>
    </contour>
    <contour>
      <point x="477" y="0" type="line"/>
      <point x="90" y="1456" type="line"/>
      <point x="250" y="1456" type="line"/>
      <point x="533" y="333" type="line"/>
      <point x="569" y="160" type="line"/>
      <point x="687.087" y="600.246"/>
      <point x="822.706" y="1022.96"/>
      <point x="948" y="1456" type="curve"/>
      <point x="1097" y="1456" type="line"/>
      <point x="1432" y="330" type="line"/>
      <point x="1476" y="169" type="line"/>
      <point x="1578.83" y="598.502"/>
      <point x="1682.73" y="1026.94"/>
      <point x="1786" y="1456" type="curve"/>
      <point x="1939" y="1456" type="line"/>
      <point x="1565" y="0" type="line"/>
      <point x="1389" y="0" type="line"/>
      <point x="1022" y="1260" type="line"/>
      <point x="651" y="0" type="line"/>
    </contour>
  </outline>
</glyph>
<glyph name="Y" format="1">
  <advance width="1237"/>
  <unicode hex="0059"/>
  <outline>
    <contour>
      <point x="627" y="1456" type="move" name="top"/>
    </contour>
    <contour>
      <point x="541" y="0" type="line"/>
      <point x="541" y="583" type="line"/>
      <point x="50" y="1456" type="line"/>
      <point x="211" y="1456" type="line"/>
      <point x="619" y="713" type="line"/>
      <point x="1032" y="1456" type="line"/>
      <point x="1191" y="1456" type="line"/>
      <point x="691" y="586" type="line"/>
      <point x="691" y="0" type="line"/>
    </contour>
  </outline>
</glyph>
<glyph name="Z" format="1">
  <advance width="1183"/>
  <unicode hex="005A"/>
  <outline>
    <contour>
      <point x="617" y="1456" type="move" name="top"/>
    </contour>
    <contour>
      <point x="116" y="0" type="line"/>
      <point x="116" y="82" type="line"/>
      <point x="888" y="1332" type="line"/>
      <point x="149" y="1332" type="line"/>
      <point x="149" y="1456" type="line"/>
      <point x="1080" y="1456" type="line"/>
      <point x="1080" y="1378" type="line"/>
      <point x="304" y="124" type="line"/>
      <point x="1076" y="124" type="line"/>
      <point x="1076" y="0" type="line"/>
    </contour>
  </outline>
</glyph>
<glyph name="bracketleft" format="1">
  <advance width="688"/>
  <unicode hex="005B"/>
  <outline>
    <contour>
      <point x="192" y="-274" type="line"/>
      <point x="192" y="1447" type="line"/>
      <point x="595" y="1447" type="line"/>
      <point x="595" y="1340" type="line"/>
      <point x="331" y="1340" type="line"/>
      <point x="331" y="-168" type="line"/>
      <point x="596" y="-168" type="line"/>
      <point x="596" y="-274" type="line"/>
    </contour>
  </outline>
</glyph>
<glyph name="asciicircum" format="1">
  <advance width="1675"/>
  <unicode hex="005E"/>
  <outline>
    <contour>
      <point x="330" y="584" type="line"/>
      <point x="790" y="1456" type="line"/>
      <point x="876" y="1456" type="line"/>
      <point x="1345" y="584" type="line"/>
      <point x="1214" y="584" type="line"/>
      <point x="832" y="1309" type="line"/>
      <point x="461" y="584" type="line"/>
    </contour>
  </outline>
</glyph>
<glyph name="b" format="1">
  <advance width="1266"/>
  <unicode hex="0062"/>
  <outline>
    <contour>
      <point x="691" y="1026" type="move" name="top"/>
    </contour>
    <contour>
      <point x="688" y="95" type="curve" smooth="yes"/>
      <point x="904" y="95"/>
      <point x="1021" y="265"/>
      <point x="1021" y="522" type="curve" smooth="yes"/>
      <point x="1021" y="769"/>
      <point x="901" y="936"/>
      <point x="687" y="936" type="curve" smooth="yes"/>
      <point x="463" y="936"/>
      <point x="322" y="768"/>
      <point x="322" y="518" type="curve" smooth="yes"/>
      <point x="322" y="264"/>
      <point x="461" y="95"/>
    </contour>
    <contour>
      <point x="700" y="-21" type="curve" smooth="yes"/>
      <point x="520" y="-21"/>
      <point x="376" y="75"/>
      <point x="323" y="207" type="curve"/>
      <point x="320" y="0" type="line"/>
      <point x="177" y="0" type="line"/>
      <point x="178" y="51"/>
      <point x="184" y="193"/>
      <point x="184" y="269" type="curve" smooth="yes"/>
      <point x="184" y="1501" type="line"/>
      <point x="325" y="1501" type="line"/>
      <point x="325" y="825" type="line"/>
      <point x="378" y="950"/>
      <point x="517" y="1052"/>
      <point x="701" y="1052" type="curve" smooth="yes"/>
      <point x="984" y="1052"/>
      <point x="1166" y="844"/>
      <point x="1166" y="523" type="curve" smooth="yes"/>
      <point x="1166" y="191"/>
      <point x="976" y="-21"/>
    </contour>
  </outline>
</glyph>
<glyph name="d" format="1">
  <advance width="1260"/>
  <unicode hex="0064"/>
  <outline>
    <contour>
      <point x="905" y="1026" type="move" name="caron.alt"/>
    </contour>
    <contour>
      <point x="567" y="1026" type="move" name="top"/>
    </contour>
    <contour>
      <point x="578" y="95" type="curve" smooth="yes"/>
      <point x="804" y="95"/>
      <point x="937" y="264"/>
      <point x="937" y="521" type="curve" smooth="yes"/>
      <point x="937" y="768"/>
      <point x="803" y="936"/>
      <point x="580" y="936" type="curve" smooth="yes"/>
      <point x="364" y="936"/>
      <point x="243" y="768"/>
      <point x="243" y="517" type="curve" smooth="yes"/>
      <point x="243" y="265"/>
      <point x="361" y="95"/>
    </contour>
    <contour>
      <point x="565" y="-21" type="curve" smooth="yes"/>
      <point x="288" y="-21"/>
      <point x="98" y="187"/>
      <point x="98" y="515" type="curve" smooth="yes"/>
      <point x="98" y="834"/>
      <point x="278" y="1052"/>
      <point x="570" y="1052" type="curve" smooth="yes"/>
      <point x="744" y="1052"/>
      <point x="883" y="957"/>
      <point x="935" y="835" type="curve"/>
      <point x="935" y="1501" type="line"/>
      <point x="1076" y="1501" type="line"/>
      <point x="1076" y="267" type="line"/>
      <point x="1077" y="183"/>
      <point x="1081" y="64"/>
      <point x="1083" y="0" type="curve"/>
      <point x="940" y="0" type="line"/>
      <point x="936" y="207" type="line"/>
      <point x="889" y="79"/>
      <point x="752" y="-21"/>
    </contour>
  </outline>
</glyph>
<glyph name="g" format="1">
  <advance width="1268"/>
  <unicode hex="0067"/>
  <outline>
    <contour>
      <point x="566" y="1026" type="move" name="top"/>
    </contour>
    <contour>
      <point x="579" y="112" type="curve" smooth="yes"/>
      <point x="809" y="112"/>
      <point x="939" y="277"/>
      <point x="939" y="523" type="curve" smooth="yes"/>
      <point x="939" y="773"/>
      <point x="808" y="936"/>
      <point x="594" y="936" type="curve" smooth="yes"/>
      <point x="377" y="936"/>
      <point x="244" y="768"/>
      <point x="244" y="516" type="curve" smooth="yes"/>
      <point x="244" y="266"/>
      <point x="370" y="112"/>
    </contour>
    <contour>
      <point x="564" y="-431" type="curve" smooth="yes"/>
      <point x="440" y="-431"/>
      <point x="318" y="-408"/>
      <point x="199" y="-354" type="curve"/>
      <point x="220" y="-231" type="line"/>
      <point x="337" y="-289"/>
      <point x="451" y="-314"/>
      <point x="560" y="-314" type="curve" smooth="yes"/>
      <point x="785" y="-314"/>
      <point x="937" y="-194"/>
      <point x="937" y="100" type="curve" smooth="yes"/>
      <point x="937" y="214" type="line"/>
      <point x="880" y="86"/>
      <point x="750" y="-1"/>
      <point x="574" y="-1" type="curve" smooth="yes"/>
      <point x="291" y="-1"/>
      <point x="98" y="197"/>
      <point x="98" y="515" type="curve" smooth="yes"/>
      <point x="98" y="834"/>
      <point x="278" y="1052"/>
      <point x="581" y="1052" type="curve" smooth="yes"/>
      <point x="754" y="1052"/>
      <point x="879" y="961"/>
      <point x="937" y="845" type="curve"/>
      <point x="944" y="1026" type="line"/>
      <point x="1086" y="1026" type="line"/>
      <point x="1086" y="1026"/>
      <point x="1077" y="849"/>
      <point x="1077" y="793" type="curve" smooth="yes"/>
      <point x="1077" y="127" type="line" smooth="yes"/>
      <point x="1077" y="-228"/>
      <point x="890" y="-431"/>
    </contour>
  </outline>
</glyph>
<glyph name="n" format="1">
  <advance width="1251"/>
  <unicode hex="006E"/>
  <outline>
    <contour>
      <point x="674" y="1026" type="move" name="top"/>
    </contour>
    <contour>
      <point x="190" y="0" type="line"/>
      <point x="190" y="811" type="line" smooth="yes"/>
      <point x="190" y="907"/>
      <point x="181" y="1026"/>
      <point x="181" y="1026" type="curve"/>
      <point x="321" y="1026" type="line"/>
      <point x="327" y="842" type="line"/>
      <point x="397" y="979"/>
      <point x="544" y="1052"/>
      <point x="703" y="1052" type="curve" smooth="yes"/>
      <point x="957" y="1052"/>
      <point x="1077" y="899"/>
      <point x="1077" y="600" type="curve" smooth="yes"/>
      <point x="1077" y="0" type="line"/>
      <point x="935" y="0" type="line"/>
      <point x="935" y="600" type="line" smooth="yes"/>
      <point x="935" y="820"/>
      <point x="867" y="936"/>
      <point x="687" y="936" type="curve" smooth="yes"/>
      <point x="511" y="936"/>
      <point x="362" y="823"/>
      <point x="331" y="660" type="curve"/>
      <point x="331" y="0" type="line"/>
    </contour>
  </outline>
</glyph>
<glyph name="p" format="1">
  <advance width="1263"/>
  <unicode hex="0070"/>
  <outline>
    <contour>
      <point x="691" y="1026" type="move" name="top"/>
    </contour>
    <contour>
      <point x="686" y="92" type="curve" smooth="yes"/>
      <point x="902" y="92"/>
      <point x="1020" y="260"/>
      <point x="1020" y="511" type="curve" smooth="yes"/>
      <point x="1020" y="763"/>
      <point x="901" y="933"/>
      <point x="687" y="933" type="curve" smooth="yes"/>
      <point x="463" y="933"/>
      <point x="328" y="753"/>
      <point x="328" y="497" type="curve" smooth="yes"/>
      <point x="328" y="249"/>
      <point x="462" y="92"/>
    </contour>
    <contour>
      <point x="190" y="-459" type="line"/>
      <point x="190" y="743" type="line" smooth="yes"/>
      <point x="190" y="839"/>
      <point x="183" y="983"/>
      <point x="181" y="1026" type="curve"/>
      <point x="327" y="1026" type="line"/>
      <point x="330" y="811" type="line"/>
      <point x="377" y="944"/>
      <point x="526" y="1049"/>
      <point x="703" y="1049" type="curve" smooth="yes"/>
      <point x="985" y="1049"/>
      <point x="1165" y="831"/>
      <point x="1165" y="514" type="curve" smooth="yes"/>
      <point x="1165" y="197"/>
      <point x="985" y="-24"/>
      <point x="701" y="-24" type="curve" smooth="yes"/>
      <point x="526" y="-24"/>
      <point x="380" y="65"/>
      <point x="331" y="189" type="curve"/>
      <point x="331" y="-459" type="line"/>
    </contour>
  </outline>
</glyph>
<glyph name="q" format="1">
  <advance width="1258"/>
  <unicode hex="0071"/>
  <outline>
    <contour>
      <point x="577" y="98" type="curve" smooth="yes"/>
      <point x="784" y="98"/>
      <point x="915" y="256"/>
      <point x="915" y="544" type="curve" smooth="yes"/>
      <point x="915" y="784"/>
      <point x="783" y="933"/>
      <point x="591" y="933" type="curve" smooth="yes"/>
      <point x="387" y="933"/>
      <point x="249" y="773"/>
      <point x="249" y="505" type="curve" smooth="yes"/>
      <point x="249" y="246"/>
      <point x="382" y="98"/>
    </contour>
    <contour>
      <point x="918" y="-434" type="line"/>
      <point x="918" y="193" type="line"/>
      <point x="884" y="102"/>
      <point x="770" y="-21"/>
      <point x="564" y="-21" type="curve" smooth="yes"/>
      <point x="301" y="-21"/>
      <point x="96" y="165"/>
      <point x="96" y="501" type="curve" smooth="yes"/>
      <point x="96" y="849"/>
      <point x="290" y="1052"/>
      <point x="575" y="1052" type="curve" smooth="yes"/>
      <point x="745" y="1052"/>
      <point x="866" y="969"/>
      <point x="918" y="863" type="curve"/>
      <point x="918" y="1026" type="line"/>
      <point x="1067" y="1026" type="line"/>
      <point x="1067.14" y="1027.14"/>
      <point x="1067.26" y="1027.68"/>
      <point x="1067.36" y="1027.68" type="curve" smooth="yes"/>
      <point x="1067.58" y="1027.68"/>
      <point x="1067.67" y="1024.76"/>
      <point x="1067.67" y="1019.63" type="curve" smooth="yes"/>
      <point x="1067.67" y="984.795"/>
      <point x="1062.99" y="848.092"/>
      <point x="1062" y="832" type="curve" smooth="yes"/>
      <point x="1062" y="-434" type="line"/>
    </contour>
  </outline>
</glyph>
<glyph name="r" format="1">
  <advance width="786"/>
  <unicode hex="0072"/>
  <outline>
    <contour>
      <point x="499" y="1026" type="move" name="top"/>
    </contour>
    <contour>
      <point x="192" y="0" type="line"/>
      <point x="192" y="775" type="line" smooth="yes"/>
      <point x="192" y="878"/>
      <point x="181" y="1026"/>
      <point x="181" y="1026" type="curve"/>
      <point x="328" y="1026" type="line"/>
      <point x="334" y="851" type="line"/>
      <point x="388" y="990"/>
      <point x="497" y="1049"/>
      <point x="622" y="1049" type="curve" smooth="yes"/>
      <point x="656" y="1049"/>
      <point x="691" y="1046"/>
      <point x="725" y="1039" type="curve"/>
      <point x="722" y="912" type="line"/>
      <point x="690" y="919"/>
      <point x="654" y="924"/>
      <point x="618" y="924" type="curve" smooth="yes"/>
      <point x="454" y="924"/>
      <point x="334" y="817"/>
      <point x="334" y="565" type="curve" smooth="yes"/>
      <point x="334" y="0" type="line"/>
    </contour>
  </outline>
</glyph>
<glyph name="s" format="1">
  <advance width="957"/>
  <unicode hex="0073"/>
  <outline>
    <contour>
      <point x="476" y="1026" type="move" name="top"/>
    </contour>
    <contour>
      <point x="497" y="-21" type="curve" smooth="yes"/>
      <point x="298" y="-21"/>
      <point x="165" y="67"/>
      <point x="124" y="99" type="curve"/>
      <point x="168" y="206" type="line"/>
      <point x="216" y="172"/>
      <point x="336" y="97"/>
      <point x="488" y="97" type="curve" smooth="yes"/>
      <point x="601" y="97"/>
      <point x="726" y="127"/>
      <point x="726" y="270" type="curve" smooth="yes"/>
      <point x="726" y="372"/>
      <point x="666" y="407"/>
      <point x="521" y="454" type="curve"/>
      <point x="373" y="500" type="line"/>
      <point x="224" y="550"/>
      <point x="123" y="611"/>
      <point x="123" y="775" type="curve" smooth="yes"/>
      <point x="123" y="971"/>
      <point x="288" y="1052"/>
      <point x="495" y="1052" type="curve" smooth="yes"/>
      <point x="669" y="1052"/>
      <point x="769" y="1001"/>
      <point x="819" y="969" type="curve"/>
      <point x="778" y="867" type="line"/>
      <point x="739" y="888"/>
      <point x="640" y="936"/>
      <point x="506" y="936" type="curve" smooth="yes"/>
      <point x="343" y="936"/>
      <point x="263" y="879"/>
      <point x="263" y="781" type="curve" smooth="yes"/>
      <point x="263" y="689"/>
      <point x="303" y="661"/>
      <point x="432" y="619" type="curve" smooth="yes"/>
      <point x="441" y="615"/>
      <point x="572" y="574"/>
      <point x="584" y="570" type="curve" smooth="yes"/>
      <point x="756" y="512"/>
      <point x="860" y="452"/>
      <point x="860" y="283" type="curve" smooth="yes"/>
      <point x="860" y="64"/>
      <point x="688" y="-21"/>
    </contour>
  </outline>
</glyph>
<glyph name="t" format="1">
  <advance width="745"/>
  <unicode hex="0074"/>
  <outline>
    <contour>
      <point x="279" y="1272" type="move" name="caron.alt"/>
    </contour>
    <contour>
      <point x="311" y="1329" type="move" name="top"/>
    </contour>
    <contour>
      <point x="648" y="-1" type="line"/>
      <point x="638" y="-1"/>
      <point x="591" y="0"/>
      <point x="582" y="0" type="curve" smooth="yes"/>
      <point x="283" y="9"/>
      <point x="249" y="118"/>
      <point x="249" y="340" type="curve" smooth="yes"/>
      <point x="249" y="932" type="line"/>
      <point x="50" y="932" type="line"/>
      <point x="50" y="1026" type="line"/>
      <point x="251" y="1026" type="line"/>
      <point x="251" y="1305" type="line"/>
      <point x="390" y="1346" type="line"/>
      <point x="390" y="1026" type="line"/>
      <point x="645" y="1026" type="line"/>
      <point x="645" y="932" type="line"/>
      <point x="390" y="932" type="line"/>
      <point x="390" y="334" type="line" smooth="yes"/>
      <point x="390" y="146"/>
      <point x="415" y="113"/>
      <point x="648" y="113" type="curve"/>
    </contour>
  </outline>
</glyph>
<glyph name="v" format="1">
  <advance width="1002"/>
  <unicode hex="0076"/>
  <outline>
    <contour>
      <point x="432" y="0" type="line"/>
      <point x="6" y="1026" type="line"/>
      <point x="157" y="1026" type="line"/>
      <point x="449" y="294" type="line"/>
      <point x="507" y="134" type="line"/>
      <point x="614.754" y="438.913"/>
      <point x="738.265" y="728.068"/>
      <point x="853" y="1026" type="curve"/>
      <point x="1002" y="1026" type="line"/>
      <point x="576" y="0" type="line"/>
    </contour>
  </outline>
</glyph>
<glyph name="bar" format="1">
  <advance width="1317"/>
  <unicode hex="007C"/>
  <outline>
    <contour>
      <point x="590" y="-499" type="line"/>
      <point x="590" y="1554" type="line"/>
      <point x="727" y="1554" type="line"/>
      <point x="727" y="-499" type="line"/>
    </contour>
  </outline>
</glyph>
<glyph name="asciitilde" format="1">
  <advance width="1085"/>
  <unicode hex="007E"/>
  <outline>
    <contour>
      <point x="146" y="396" type="curve"/>
      <point x="51" y="442" type="line"/>
      <point x="80" y="577"/>
      <point x="156" y="662"/>
      <point x="319" y="662" type="curve" smooth="yes"/>
      <point x="392" y="662"/>
      <point x="476" y="633"/>
      <point x="557" y="604" type="curve" smooth="yes"/>
      <point x="666" y="564"/>
      <point x="728" y="537"/>
      <point x="782" y="537" type="curve" smooth="yes"/>
      <point x="876" y="537"/>
      <point x="933" y="624"/>
      <point x="955" y="715" type="curve"/>
      <point x="1058" y="682" type="line"/>
      <point x="1022" y="527"/>
      <point x="933" y="417"/>
      <point x="780" y="417" type="curve" smooth="yes"/>
      <point x="720" y="417"/>
      <point x="639" y="449"/>
      <point x="557" y="479" type="curve" smooth="yes"/>
      <point x="451" y="521"/>
      <point x="390" y="543"/>
      <point x="321" y="543" type="curve" smooth="yes"/>
      <point x="211" y="543"/>
      <point x="167" y="490"/>
    </contour>
  </outline>
</glyph>
<glyph name="exclamdown" format="1">
  <advance width="481"/>
  <unicode hex="00A1"/>
  <outline>
    <contour>
      <point x="151" y="1122" type="line"/>
      <point x="322" y="1122" type="line"/>
      <point x="322" y="932" type="line"/>
      <point x="151" y="932" type="line"/>
    </contour>
    <contour>
      <point x="196" y="752" type="line"/>
      <point x="278" y="752" type="line"/>
      <point x="322" y="-334" type="line"/>
      <point x="153" y="-334" type="line"/>
    </contour>
  </outline>
</glyph>
<glyph name="cent" format="1">
  <advance width="999"/>
  <unicode hex="00A2"/>
  <outline>
    <contour>
      <point x="652" y="-20.1577" type="curve"/>
      <point x="652" y="-196" type="line"/>
      <point x="573" y="-196" type="line"/>
      <point x="573" y="-19.5325" type="line"/>
      <point x="281.065" y="-0.223336"/>
      <point x="98" y="207.935"/>
      <point x="98" y="504" type="curve" smooth="yes"/>
      <point x="98" y="814.766"/>
      <point x="283.583" y="1027.39"/>
      <point x="573" y="1050" type="curve"/>
      <point x="573" y="1253" type="line"/>
      <point x="652" y="1253" type="line"/>
      <point x="652" y="1051.4" type="line"/>
      <point x="770.74" y="1046.11"/>
      <point x="880.258" y="1006.09"/>
      <point x="950" y="941" type="curve"/>
      <point x="901" y="844" type="line"/>
      <point x="840.88" y="895.665"/>
      <point x="754.288" y="931.447"/>
      <point x="652" y="935.596" type="curve"/>
      <point x="652" y="95.6958" type="line"/>
      <point x="765.488" y="101.575"/>
      <point x="857.218" y="143.986"/>
      <point x="924" y="195" type="curve"/>
      <point x="970" y="96" type="line"/>
      <point x="891.894" y="28.0022"/>
      <point x="779.17" y="-13.8205"/>
    </contour>
    <contour>
      <point x="573" y="97.7829" type="curve"/>
      <point x="573" y="932.343" type="line"/>
      <point x="374.675" y="907.089"/>
      <point x="244" y="752.239"/>
      <point x="244" y="505" type="curve" smooth="yes"/>
      <point x="244" y="274.143"/>
      <point x="370.203" y="120.031"/>
    </contour>
  </outline>
</glyph>
<glyph name="currency" format="1">
  <advance width="1218"/>
  <unicode hex="00A4"/>
  <outline>
    <contour>
      <point x="609" y="713" type="curve" smooth="yes"/>
      <point x="783" y="713"/>
      <point x="911" y="853"/>
      <point x="911" y="1027" type="curve" smooth="yes"/>
      <point x="911" y="1201"/>
      <point x="783" y="1334"/>
      <point x="609" y="1334" type="curve" smooth="yes"/>
      <point x="435" y="1334"/>
      <point x="307" y="1201"/>
      <point x="307" y="1027" type="curve" smooth="yes"/>
      <point x="307" y="853"/>
      <point x="435" y="713"/>
    </contour>
    <contour>
      <point x="171" y="546" type="line"/>
      <point x="120" y="597" type="line"/>
      <point x="307" y="784" type="line"/>
      <point x="252" y="850"/>
      <point x="219" y="934"/>
      <point x="219" y="1027" type="curve" smooth="yes"/>
      <point x="219" y="1124"/>
      <point x="255" y="1212"/>
      <point x="314" y="1279" type="curve"/>
      <point x="119" y="1474" type="line"/>
      <point x="170" y="1525" type="line"/>
      <point x="367" y="1329" type="line"/>
      <point x="433" y="1381"/>
      <point x="518" y="1412"/>
      <point x="610" y="1412" type="curve" smooth="yes"/>
      <point x="702" y="1412"/>
      <point x="786" y="1381"/>
      <point x="853" y="1330" type="curve"/>
      <point x="1048" y="1525" type="line"/>
      <point x="1099" y="1474" type="line"/>
      <point x="906" y="1281" type="line"/>
      <point x="966" y="1213"/>
      <point x="1002" y="1125"/>
      <point x="1002" y="1027" type="curve" smooth="yes"/>
      <point x="1002" y="934"/>
      <point x="969" y="849"/>
      <point x="913" y="782" type="curve"/>
      <point x="1099" y="597" type="line"/>
      <point x="1048" y="546" type="line"/>
      <point x="862" y="732" type="line"/>
      <point x="794" y="676"/>
      <point x="706" y="642"/>
      <point x="610" y="642" type="curve" smooth="yes"/>
      <point x="514" y="642"/>
      <point x="426" y="676"/>
      <point x="358" y="733" type="curve"/>
    </contour>
  </outline>
</glyph>
<glyph name="yen" format="1">
  <advance width="1182"/>
  <unicode hex="00A5"/>
  <outline>
    <contour>
      <point x="511.5" y="0" type="line"/>
      <point x="661.5" y="0" type="line"/>
      <point x="661.5" y="315" type="line"/>
      <point x="962.5" y="315" type="line"/>
      <point x="962.5" y="406" type="line"/>
      <point x="661.5" y="406" type="line"/>
      <point x="661.5" y="545" type="line"/>
      <point x="963.5" y="545" type="line"/>
      <point x="963.5" y="639" type="line"/>
      <point x="691.96" y="639" type="line"/>
      <point x="1161.5" y="1456" type="line"/>
      <point x="1002.5" y="1456" type="line"/>
      <point x="589.5" y="713" type="line"/>
      <point x="181.5" y="1456" type="line"/>
      <point x="20.5" y="1456" type="line"/>
      <point x="480.004" y="639" type="line"/>
      <point x="203.5" y="639" type="line"/>
      <point x="203.5" y="545" type="line"/>
      <point x="511.5" y="545" type="line"/>
      <point x="511.5" y="406" type="line"/>
      <point x="203.5" y="406" type="line"/>
      <point x="203.5" y="315" type="line"/>
      <point x="511.5" y="315" type="line"/>
    </contour>
  </outline>
</glyph>
<glyph name="dieresis" format="1">
  <advance width="743"/>
  <unicode hex="00A8"/>
  <outline>
    <contour>
      <point x="373" y="1026" type="move" name="_top"/>
    </contour>
    <contour>
      <point x="486" y="1196" type="line"/>
      <point x="486" y="1344" type="line"/>
      <point x="629" y="1344" type="line"/>
      <point x="629" y="1196" type="line"/>
    </contour>
    <contour>
      <point x="116" y="1196" type="line"/>
      <point x="116" y="1344" type="line"/>
      <point x="259" y="1344" type="line"/>
      <point x="259" y="1196" type="line"/>
    </contour>
  </outline>
</glyph>
<glyph name="copyright" format="1">
  <advance width="1738"/>
  <unicode hex="00A9"/>
  <outline>
    <contour>
      <point x="868" y="-32" type="curve" smooth="yes"/>
      <point x="451" y="-32"/>
      <point x="109" y="308"/>
      <point x="109" y="726" type="curve" smooth="yes"/>
      <point x="109" y="1143"/>
      <point x="451" y="1485"/>
      <point x="868" y="1485" type="curve" smooth="yes"/>
      <point x="1287" y="1485"/>
      <point x="1630" y="1143"/>
      <point x="1630" y="726" type="curve" smooth="yes"/>
      <point x="1630" y="308"/>
      <point x="1287" y="-32"/>
    </contour>
    <contour>
      <point x="870" y="60" type="curve" smooth="yes"/>
      <point x="1230" y="60"/>
      <point x="1522" y="362"/>
      <point x="1522" y="722" type="curve" smooth="yes"/>
      <point x="1522" y="1083"/>
      <point x="1230" y="1387"/>
      <point x="870" y="1387" type="curve" smooth="yes"/>
      <point x="509" y="1387"/>
      <point x="217" y="1083"/>
      <point x="217" y="722" type="curve" smooth="yes"/>
      <point x="217" y="362"/>
      <point x="509" y="60"/>
    </contour>
    <contour>
      <point x="891" y="276" type="curve" smooth="yes"/>
      <point x="645" y="276"/>
      <point x="462" y="436"/>
      <point x="462" y="716" type="curve" smooth="yes"/>
      <point x="462" y="1006"/>
      <point x="651" y="1179"/>
      <point x="899" y="1179" type="curve" smooth="yes"/>
      <point x="997" y="1179"/>
      <point x="1093" y="1146"/>
      <point x="1155" y="1086" type="curve"/>
      <point x="1114" y="1004" type="line"/>
      <point x="1060" y="1049"/>
      <point x="977" y="1078"/>
      <point x="900" y="1078" type="curve" smooth="yes"/>
      <point x="757" y="1078"/>
      <point x="586" y="989"/>
      <point x="586" y="718" type="curve" smooth="yes"/>
      <point x="586" y="503"/>
      <point x="706" y="376"/>
      <point x="887" y="376" type="curve" smooth="yes"/>
      <point x="969" y="376"/>
      <point x="1063" y="398"/>
      <point x="1133" y="452" type="curve"/>
      <point x="1173" y="366" type="line"/>
      <point x="1107" y="312"/>
      <point x="1010" y="276"/>
    </contour>
  </outline>
</glyph>
<glyph name="registered" format="1">
  <advance width="1738"/>
  <unicode hex="00AE"/>
  <outline>
    <contour>
      <point x="868" y="-32" type="curve" smooth="yes"/>
      <point x="451" y="-32"/>
      <point x="109" y="308"/>
      <point x="109" y="726" type="curve" smooth="yes"/>
      <point x="109" y="1143"/>
      <point x="451" y="1485"/>
      <point x="868" y="1485" type="curve" smooth="yes"/>
      <point x="1287" y="1485"/>
      <point x="1630" y="1143"/>
      <point x="1630" y="726" type="curve" smooth="yes"/>
      <point x="1630" y="308"/>
      <point x="1287" y="-32"/>
    </contour>
    <contour>
      <point x="870" y="60" type="curve" smooth="yes"/>
      <point x="1230" y="60"/>
      <point x="1522" y="362"/>
      <point x="1522" y="722" type="curve" smooth="yes"/>
      <point x="1522" y="1083"/>
      <point x="1230" y="1387"/>
      <point x="870" y="1387" type="curve" smooth="yes"/>
      <point x="509" y="1387"/>
      <point x="217" y="1083"/>
      <point x="217" y="722" type="curve" smooth="yes"/>
      <point x="217" y="362"/>
      <point x="509" y="60"/>
    </contour>
    <contour>
      <point x="687" y="770" type="line"/>
      <point x="822" y="770" type="line" smooth="yes"/>
      <point x="1008" y="770"/>
      <point x="1093" y="796"/>
      <point x="1093" y="925" type="curve" smooth="yes"/>
      <point x="1093" y="1067"/>
      <point x="1033" y="1088"/>
      <point x="808" y="1088" type="curve" smooth="yes"/>
      <point x="687" y="1088" type="line"/>
    </contour>
    <contour>
      <point x="559" y="269" type="line"/>
      <point x="559" y="1197" type="line"/>
      <point x="822" y="1197" type="line" smooth="yes"/>
      <point x="1118" y="1197"/>
      <point x="1233" y="1105"/>
      <point x="1233" y="941" type="curve" smooth="yes"/>
      <point x="1233" y="813"/>
      <point x="1188" y="724"/>
      <point x="1004" y="692" type="curve"/>
      <point x="1229" y="269" type="line"/>
      <point x="1078" y="269" type="line"/>
      <point x="872" y="679" type="line"/>
      <point x="690" y="679" type="line"/>
      <point x="690" y="269" type="line"/>
    </contour>
  </outline>
</glyph>
<glyph name="acute" format="1">
  <advance width="607"/>
  <unicode hex="00B4"/>
  <outline>
    <contour>
      <point x="143" y="1026" type="move" name="_top"/>
    </contour>
    <contour>
      <point x="96" y="1173" type="line"/>
      <point x="312" y="1494" type="line"/>
      <point x="497" y="1494" type="line"/>
      <point x="200" y="1173" type="line"/>
    </contour>
  </outline>
</glyph>
<glyph name="mu" format="1">
  <advance width="1260"/>
  <unicode hex="00B5"/>
  <outline>
    <contour>
      <point x="320" y="-304" type="line"/>
      <point x="179" y="-302" type="line"/>
      <point x="179" y="1026" type="line"/>
      <point x="320" y="1026" type="line"/>
      <point x="320" y="400" type="line" smooth="yes"/>
      <point x="320" y="196"/>
      <point x="411" y="92"/>
      <point x="585" y="92" type="curve" smooth="yes"/>
      <point x="805" y="92"/>
      <point x="922" y="253"/>
      <point x="922" y="379" type="curve" smooth="yes"/>
      <point x="922" y="1026" type="line"/>
      <point x="1064" y="1026" type="line"/>
      <point x="1064" y="239" type="line" smooth="yes"/>
      <point x="1064" y="144"/>
      <point x="1068" y="46"/>
      <point x="1071" y="0" type="curve"/>
      <point x="932" y="0" type="line"/>
      <point x="925" y="178" type="line"/>
      <point x="859" y="65"/>
      <point x="744" y="-24"/>
      <point x="570" y="-24" type="curve" smooth="yes"/>
      <point x="463" y="-24"/>
      <point x="379" y="3"/>
      <point x="320" y="57" type="curve"/>
    </contour>
  </outline>
</glyph>
<glyph name="paragraph" format="1">
  <advance width="1201"/>
  <unicode hex="00B6"/>
  <outline>
    <contour>
      <point x="504" y="-180" type="line"/>
      <point x="504" y="828" type="line"/>
      <point x="501.61" y="827.958"/>
      <point x="499.217" y="827.937"/>
      <point x="496.821" y="827.937" type="curve" smooth="yes"/>
      <point x="326.784" y="827.937"/>
      <point x="143" y="932.862"/>
      <point x="143" y="1136" type="curve" smooth="yes"/>
      <point x="143" y="1385"/>
      <point x="329" y="1457"/>
      <point x="606" y="1457" type="curve" smooth="yes"/>
      <point x="1027" y="1457" type="line"/>
      <point x="1027" y="1348" type="line"/>
      <point x="930" y="1348" type="line"/>
      <point x="930" y="-180" type="line"/>
      <point x="825" y="-180" type="line"/>
      <point x="825" y="1348" type="line"/>
      <point x="608" y="1348" type="line"/>
      <point x="608" y="-180" type="line"/>
    </contour>
  </outline>
</glyph>
<glyph name="cedilla" format="1">
  <advance width="529"/>
  <unicode hex="00B8"/>
  <outline>
    <contour>
      <point x="78" y="-307" type="line"/>
      <point x="103.874" y="-318.859"/>
      <point x="174.912" y="-335.107"/>
      <point x="229.737" y="-335.107" type="curve" smooth="yes"/>
      <point x="306.255" y="-335.107"/>
      <point x="336" y="-309.314"/>
      <point x="336" y="-264" type="curve" smooth="yes"/>
      <point x="336" y="-218"/>
      <point x="276" y="-188"/>
      <point x="168" y="-188" type="curve" smooth="yes"/>
      <point x="154" y="-188" type="line"/>
      <point x="187" y="7" type="line"/>
      <point x="265" y="7" type="line"/>
      <point x="243" y="-129" type="line"/>
      <point x="352" y="-137"/>
      <point x="458" y="-172"/>
      <point x="458" y="-270" type="curve" smooth="yes"/>
      <point x="458" y="-380.137"/>
      <point x="350.654" y="-418.076"/>
      <point x="238.735" y="-418.076" type="curve" smooth="yes"/>
      <point x="164.485" y="-418.076"/>
      <point x="88.4726" y="-393.193"/>
      <point x="66" y="-384" type="curve"/>
    </contour>
  </outline>
</glyph>
<glyph name="onehalf" format="1">
  <advance width="1845"/>
  <unicode hex="00BD"/>
  <outline>
    <contour>
      <point x="167" y="640" type="line"/>
      <point x="167" y="727" type="line"/>
      <point x="327" y="727" type="line"/>
      <point x="327" y="1344" type="line"/>
      <point x="163" y="1274" type="line"/>
      <point x="164" y="1370" type="line"/>
      <point x="176" y="1374"/>
      <point x="334" y="1451"/>
      <point x="342" y="1456" type="curve"/>
      <point x="435" y="1456" type="line"/>
      <point x="435" y="726" type="line"/>
      <point x="580" y="726" type="line"/>
      <point x="580" y="640" type="line"/>
    </contour>
    <contour>
      <point x="364" y="0" type="line"/>
      <point x="1280" y="1456" type="line"/>
      <point x="1393" y="1456" type="line"/>
      <point x="486" y="0" type="line"/>
    </contour>
    <contour>
      <point x="1378" y="833" type="curve" smooth="yes"/>
      <point x="1541.58" y="833"/>
      <point x="1635.12" y="738.606"/>
      <point x="1635.12" y="602.298" type="curve" smooth="yes"/>
      <point x="1635.12" y="485.495"/>
      <point x="1581.41" y="420.619"/>
      <point x="1450" y="297" type="curve"/>
      <point x="1244" y="97" type="line"/>
      <point x="1636" y="97" type="line"/>
      <point x="1636" y="0" type="line"/>
      <point x="1100" y="0" type="line"/>
      <point x="1100" y="98" type="line"/>
      <point x="1383" y="376" type="line" smooth="yes"/>
      <point x="1492.66" y="483.752"/>
      <point x="1523.21" y="532.402"/>
      <point x="1523.21" y="599.983" type="curve" smooth="yes"/>
      <point x="1523.21" y="674.622"/>
      <point x="1483.66" y="737"/>
      <point x="1374" y="737" type="curve" smooth="yes"/>
      <point x="1291" y="737"/>
      <point x="1212" y="696"/>
      <point x="1185" y="594" type="curve"/>
      <point x="1111" y="643" type="line"/>
      <point x="1143" y="763"/>
      <point x="1244" y="833"/>
    </contour>
  </outline>
</glyph>
<glyph name="threequarters" format="1">
  <advance width="1863"/>
  <unicode hex="00BE"/>
  <outline>
    <contour>
      <point x="1159" y="278" type="line"/>
      <point x="1434" y="278" type="line"/>
      <point x="1434" y="670" type="line"/>
    </contour>
    <contour>
      <point x="469" y="0" type="line"/>
      <point x="1386" y="1456" type="line"/>
      <point x="1499" y="1456" type="line"/>
      <point x="592" y="0" type="line"/>
    </contour>
    <contour>
      <point x="1436" y="0" type="line"/>
      <point x="1436" y="187" type="line"/>
      <point x="1050" y="187" type="line"/>
      <point x="1050" y="269" type="line"/>
      <point x="1421" y="793" type="line"/>
      <point x="1544" y="793" type="line"/>
      <point x="1544" y="278" type="line"/>
      <point x="1641" y="278" type="line"/>
      <point x="1640" y="187" type="line"/>
      <point x="1541" y="187" type="line"/>
      <point x="1541" y="0" type="line"/>
    </contour>
    <contour>
      <point x="436" y="604" type="curve" smooth="yes"/>
      <point x="339" y="604"/>
      <point x="241" y="638"/>
      <point x="178" y="696" type="curve"/>
      <point x="225" y="775" type="line"/>
      <point x="284" y="724"/>
      <point x="361" y="694"/>
      <point x="432" y="694" type="curve" smooth="yes"/>
      <point x="530" y="694"/>
      <point x="597" y="759"/>
      <point x="597" y="850" type="curve" smooth="yes"/>
      <point x="597" y="941"/>
      <point x="529" y="998"/>
      <point x="405" y="998" type="curve" smooth="yes"/>
      <point x="318" y="998" type="line"/>
      <point x="318" y="1089" type="line"/>
      <point x="403" y="1089" type="line" smooth="yes"/>
      <point x="515" y="1089"/>
      <point x="579" y="1143"/>
      <point x="579" y="1226" type="curve" smooth="yes"/>
      <point x="579" y="1312"/>
      <point x="516" y="1368"/>
      <point x="423" y="1368" type="curve" smooth="yes"/>
      <point x="352" y="1368"/>
      <point x="286" y="1343"/>
      <point x="232" y="1288" type="curve"/>
      <point x="180" y="1354" type="line"/>
      <point x="233" y="1417"/>
      <point x="329" y="1457"/>
      <point x="430" y="1457" type="curve" smooth="yes"/>
      <point x="580" y="1457"/>
      <point x="688" y="1374"/>
      <point x="688" y="1232" type="curve" smooth="yes"/>
      <point x="688" y="1153"/>
      <point x="640" y="1082"/>
      <point x="548" y="1052" type="curve"/>
      <point x="650" y="1023"/>
      <point x="707" y="943"/>
      <point x="707" y="848" type="curve" smooth="yes"/>
      <point x="707" y="695"/>
      <point x="592" y="604"/>
    </contour>
  </outline>
</glyph>
<glyph name="AE" format="1">
  <advance width="1961"/>
  <unicode hex="00C6"/>
  <outline>
    <contour>
      <point x="1307" y="1456" type="move" name="top"/>
    </contour>
    <contour>
      <point x="484" y="542" type="line"/>
      <point x="1048" y="542" type="line"/>
      <point x="987" y="1330" type="line"/>
      <point x="931" y="1330" type="line"/>
    </contour>
    <contour>
      <point x="30" y="0" type="line"/>
      <point x="869" y="1456" type="line"/>
      <point x="1832" y="1456" type="line"/>
      <point x="1832" y="1330" type="line"/>
      <point x="1121" y="1330" type="line"/>
      <point x="1164" y="812" type="line"/>
      <point x="1781" y="812" type="line"/>
      <point x="1781" y="695" type="line"/>
      <point x="1172" y="695" type="line"/>
      <point x="1223" y="123" type="line"/>
      <point x="1857" y="123" type="line"/>
      <point x="1857" y="0" type="line"/>
      <point x="1099" y="0" type="line"/>
      <point x="1060" y="430" type="line"/>
      <point x="429" y="430" type="line"/>
      <point x="184" y="0" type="line"/>
    </contour>
  </outline>
</glyph>
<glyph name="germandbls" format="1">
  <advance width="1246"/>
  <unicode hex="00DF"/>
  <outline>
    <contour>
      <point x="662" y="837" type="curve"/>
      <point x="905.893" y="776.027"/>
      <point x="1164" y="630.076"/>
      <point x="1164" y="336" type="curve" smooth="yes"/>
      <point x="1164" y="115"/>
      <point x="999" y="-26"/>
      <point x="772" y="-26" type="curve" smooth="yes"/>
      <point x="647" y="-26"/>
      <point x="518" y="13"/>
      <point x="459" y="37" type="curve"/>
      <point x="478" y="151" type="line"/>
      <point x="535.626" y="128.327"/>
      <point x="654.831" y="89.5907"/>
      <point x="749.62" y="89.5907" type="curve" smooth="yes"/>
      <point x="907.745" y="89.5907"/>
      <point x="1016" y="175.08"/>
      <point x="1016" y="330" type="curve" smooth="yes"/>
      <point x="1016" y="542"/>
      <point x="870" y="662"/>
      <point x="547" y="778" type="curve"/>
      <point x="547" y="890" type="line"/>
      <point x="812" y="961"/>
      <point x="859" y="1053"/>
      <point x="859" y="1191" type="curve" smooth="yes"/>
      <point x="859" y="1320"/>
      <point x="757" y="1402"/>
      <point x="599" y="1402" type="curve" smooth="yes"/>
      <point x="417" y="1402"/>
      <point x="321" y="1271"/>
      <point x="321" y="1045" type="curve" smooth="yes"/>
      <point x="321" y="0" type="line"/>
      <point x="182" y="0" type="line"/>
      <point x="183" y="1044" type="line" smooth="yes"/>
      <point x="183" y="1354"/>
      <point x="334" y="1518"/>
      <point x="600" y="1518" type="curve" smooth="yes"/>
      <point x="844" y="1518"/>
      <point x="1000" y="1390"/>
      <point x="1000" y="1194" type="curve" smooth="yes"/>
      <point x="1000" y="1011"/>
      <point x="912" y="920"/>
      <point x="715" y="855" type="curve" smooth="yes"/>
      <point x="708" y="851"/>
      <point x="670" y="839"/>
    </contour>
  </outline>
</glyph>
<glyph name="divide" format="1">
  <advance width="1146"/>
  <unicode hex="00F7"/>
  <outline>
    <contour>
      <point x="493" y="880" type="line"/>
      <point x="493" y="1077" type="line"/>
      <point x="688" y="1077" type="line"/>
      <point x="688" y="880" type="line"/>
    </contour>
    <contour>
      <point x="142" y="493" type="line"/>
      <point x="142" y="617" type="line"/>
      <point x="1027" y="617" type="line"/>
      <point x="1027" y="493" type="line"/>
    </contour>
    <contour>
      <point x="492" y="30" type="line"/>
      <point x="492" y="226" type="line"/>
      <point x="687" y="226" type="line"/>
      <point x="687" y="30" type="line"/>
    </contour>
  </outline>
</glyph>
<glyph name="thorn" format="1">
  <advance width="1242"/>
  <unicode hex="00FE"/>
  <outline>
    <contour>
      <point x="654" y="93" type="curve" smooth="yes"/>
      <point x="868" y="93"/>
      <point x="988" y="267"/>
      <point x="988" y="516" type="curve" smooth="yes"/>
      <point x="988" y="764"/>
      <point x="874" y="933"/>
      <point x="657" y="933" type="curve" smooth="yes"/>
      <point x="396" y="933"/>
      <point x="310" y="723"/>
      <point x="310" y="505" type="curve" smooth="yes"/>
      <point x="310" y="264"/>
      <point x="429" y="93"/>
    </contour>
    <contour>
      <point x="163" y="-434" type="line"/>
      <point x="163" y="1454" type="line"/>
      <point x="311" y="1454" type="line"/>
      <point x="312" y="855" type="line"/>
      <point x="380" y="980"/>
      <point x="510" y="1051"/>
      <point x="667" y="1051" type="curve" smooth="yes"/>
      <point x="970" y="1051"/>
      <point x="1142" y="838"/>
      <point x="1142" y="518" type="curve" smooth="yes"/>
      <point x="1142" y="205"/>
      <point x="969" y="-23"/>
      <point x="667" y="-23" type="curve" smooth="yes"/>
      <point x="515" y="-23"/>
      <point x="379" y="46"/>
      <point x="311" y="169" type="curve"/>
      <point x="312" y="-434" type="line"/>
    </contour>
  </outline>
</glyph>
<glyph name="Hbar" format="1">
  <advance width="1580"/>
  <unicode hex="0126"/>
  <outline>
    <component base="H"/>
    <contour>
      <point x="117" y="1192" type="line"/>
      <point x="1457" y="1192" type="line"/>
      <point x="1457" y="1274" type="line"/>
      <point x="116" y="1274" type="line"/>
    </contour>
  </outline>
</glyph>
<glyph name="kgreenlandic" format="1">
  <advance width="1082"/>
  <unicode hex="0138"/>
  <outline>
    <contour>
      <point x="187" y="0" type="line"/>
      <point x="187" y="1026" type="line"/>
      <point x="330" y="1026" type="line"/>
      <point x="330" y="548" type="line"/>
      <point x="825" y="1026" type="line"/>
      <point x="1017" y="1026" type="line"/>
      <point x="474" y="516" type="line"/>
      <point x="1056" y="0" type="line"/>
      <point x="869" y="0" type="line"/>
      <point x="330" y="484" type="line"/>
      <point x="330" y="0" type="line"/>
    </contour>
  </outline>
</glyph>
<glyph name="Lslash" format="1">
  <advance width="1108"/>
  <unicode hex="0141"/>
  <outline>
    <contour>
      <point x="58" y="505" type="line"/>
      <point x="58" y="622" type="line"/>
      <point x="213" y="718.647" type="line"/>
      <point x="213" y="1456" type="line"/>
      <point x="362" y="1456" type="line"/>
      <point x="362" y="811.553" type="line"/>
      <point x="653" y="993" type="line"/>
      <point x="653" y="876" type="line"/>
      <point x="362" y="694.553" type="line"/>
      <point x="362" y="124" type="line"/>
      <point x="1041" y="124" type="line"/>
      <point x="1041" y="0" type="line"/>
      <point x="213" y="0" type="line"/>
      <point x="213" y="601.647" type="line"/>
    </contour>
  </outline>
</glyph>
<glyph name="Eng" format="1">
  <advance width="1536"/>
  <unicode hex="014A"/>
  <outline>
    <contour>
      <point x="1378" y="1456" type="line"/>
      <point x="1378" y="28" type="line"/>
      <point x="1377" y="-245"/>
      <point x="1300" y="-432"/>
      <point x="947" y="-432" type="curve"/>
      <point x="947" y="-318" type="line"/>
      <point x="1136" y="-318"/>
      <point x="1232" y="-238"/>
      <point x="1232" y="-56" type="curve" smooth="yes"/>
      <point x="1232" y="28" type="line"/>
      <point x="471" y="1091" type="line"/>
      <point x="366" y="1251" type="line"/>
      <point x="366" y="0" type="line"/>
      <point x="221" y="0" type="line"/>
      <point x="221" y="1456" type="line"/>
      <point x="378" y="1456" type="line"/>
      <point x="1115" y="411" type="line"/>
      <point x="1232" y="234" type="line"/>
      <point x="1232" y="1456" type="line"/>
    </contour>
  </outline>
</glyph>
<glyph name="florin" format="1">
  <advance width="1043"/>
  <unicode hex="0192"/>
  <outline>
    <contour>
      <point x="199" y="-288" type="curve" smooth="yes"/>
      <point x="165" y="-288"/>
      <point x="135" y="-283"/>
      <point x="97" y="-273" type="curve"/>
      <point x="108" y="-164" type="line"/>
      <point x="118" y="-167"/>
      <point x="153" y="-176"/>
      <point x="176" y="-176" type="curve" smooth="yes"/>
      <point x="286" y="-176"/>
      <point x="342" y="-103"/>
      <point x="361" y="0" type="curve" smooth="yes"/>
      <point x="527" y="924" type="line"/>
      <point x="364" y="924" type="line"/>
      <point x="377" y="1024" type="line"/>
      <point x="544" y="1024" type="line"/>
      <point x="564" y="1139" type="line"/>
      <point x="592" y="1327"/>
      <point x="662" y="1480"/>
      <point x="884" y="1480" type="curve" smooth="yes"/>
      <point x="944" y="1480"/>
      <point x="1023" y="1454"/>
      <point x="1023" y="1454" type="curve"/>
      <point x="1007" y="1348" type="line"/>
      <point x="989" y="1353"/>
      <point x="945" y="1367"/>
      <point x="900" y="1367" type="curve" smooth="yes"/>
      <point x="764" y="1367"/>
      <point x="729" y="1297"/>
      <point x="711" y="1197" type="curve"/>
      <point x="674" y="1024" type="line"/>
      <point x="903" y="1024" type="line"/>
      <point x="883" y="924" type="line"/>
      <point x="661" y="924" type="line"/>
      <point x="516" y="111" type="line"/>
      <point x="477" y="-118"/>
      <point x="452" y="-288"/>
    </contour>
  </outline>
</glyph>
<glyph name="circumflex" format="1">
  <advance width="699"/>
  <unicode hex="02C6"/>
  <outline>
    <contour>
      <point x="345" y="1026" type="move" name="_top"/>
    </contour>
    <contour>
      <point x="75" y="1185" type="line"/>
      <point x="295" y="1494" type="line"/>
      <point x="405" y="1494" type="line"/>
      <point x="623" y="1185" type="line"/>
      <point x="517" y="1185" type="line"/>
      <point x="346" y="1386" type="line"/>
      <point x="175" y="1185" type="line"/>
    </contour>
  </outline>
</glyph>
<glyph name="uni02C9" format="1">
  <advance width="600"/>
  <unicode hex="02C9"/>
  <outline>
    <contour>
      <point x="6" y="1307" type="line"/>
      <point x="590" y="1307" type="line"/>
      <point x="590" y="1425" type="line"/>
      <point x="6" y="1425" type="line"/>
    </contour>
  </outline>
</glyph>
<glyph name="breve" format="1">
  <advance width="559"/>
  <unicode hex="02D8"/>
  <outline>
    <contour>
      <point x="285" y="1026" type="move" name="_top"/>
    </contour>
    <contour>
      <point x="281" y="1171" type="curve" smooth="yes"/>
      <point x="123" y="1171"/>
      <point x="45" y="1246"/>
      <point x="33" y="1408" type="curve"/>
      <point x="136" y="1408" type="line"/>
      <point x="141" y="1314"/>
      <point x="189" y="1275"/>
      <point x="281" y="1275" type="curve" smooth="yes"/>
      <point x="374" y="1275"/>
      <point x="413" y="1321"/>
      <point x="425" y="1408" type="curve"/>
      <point x="526" y="1408" type="line"/>
      <point x="515" y="1250"/>
      <point x="430" y="1171"/>
    </contour>
  </outline>
</glyph>
<glyph name="tilde" format="1">
  <advance width="620"/>
  <unicode hex="02DC"/>
  <outline>
    <contour>
      <point x="314" y="1026" type="move" name="_top"/>
    </contour>
    <contour>
      <point x="468.783" y="1203.99" type="curve" smooth="yes"/>
      <point x="377.478" y="1203.99"/>
      <point x="240.705" y="1303"/>
      <point x="169" y="1303" type="curve" smooth="yes"/>
      <point x="126" y="1303"/>
      <point x="106" y="1273"/>
      <point x="103" y="1216" type="curve"/>
      <point x="13" y="1216" type="line"/>
      <point x="13" y="1334"/>
      <point x="69" y="1405"/>
      <point x="162" y="1405" type="curve" smooth="yes"/>
      <point x="262.125" y="1405"/>
      <point x="390.092" y="1305.98"/>
      <point x="463.02" y="1305.98" type="curve" smooth="yes"/>
      <point x="502.298" y="1305.98"/>
      <point x="511.033" y="1335.08"/>
      <point x="513" y="1399" type="curve"/>
      <point x="607" y="1399" type="line"/>
      <point x="607" y="1286.67"/>
      <point x="567.476" y="1203.99"/>
    </contour>
  </outline>
</glyph>
<glyph name="uni0312" format="1">
  <advance width="600"/>
  <unicode hex="0312"/>
  <outline>
    <contour>
      <point x="284" y="1026" type="move" name="_top"/>
    </contour>
    <contour>
      <point x="472" y="1682" type="line"/>
      <point x="366" y="1221" type="line"/>
      <point x="203" y="1221" type="line"/>
      <point x="362" y="1682" type="line"/>
    </contour>
  </outline>
</glyph>
<glyph name="uni0326" format="1">
  <advance width="540"/>
  <unicode hex="0326"/>
  <outline>
    <contour>
      <point x="136" y="-582" type="line"/>
      <point x="241" y="-129" type="line"/>
      <point x="404" y="-129" type="line"/>
      <point x="246" y="-582" type="line"/>
    </contour>
  </outline>
</glyph>
<glyph name="Sigma" format="1">
  <advance width="1148"/>
  <unicode hex="03A3"/>
  <outline>
    <contour>
      <point x="117" y="-105" type="line"/>
      <point x="117" y="-32" type="line"/>
      <point x="621" y="688" type="line"/>
      <point x="136" y="1375" type="line"/>
      <point x="136" y="1454" type="line"/>
      <point x="1036" y="1454" type="line"/>
      <point x="1036" y="1343" type="line"/>
      <point x="316" y="1343" type="line"/>
      <point x="771" y="697" type="line"/>
      <point x="283" y="7" type="line"/>
      <point x="1078" y="7" type="line"/>
      <point x="1078" y="-105" type="line"/>
    </contour>
  </outline>
</glyph>
<glyph name="emdash" format="1">
  <advance width="2171"/>
  <unicode hex="2014"/>
  <outline>
    <contour>
      <point x="-13" y="497" type="line"/>
      <point x="-13" y="619" type="line"/>
      <point x="2166" y="619" type="line"/>
      <point x="2166" y="497" type="line"/>
    </contour>
  </outline>
</glyph>
<glyph name="quotedblright" format="1">
  <advance width="1024"/>
  <unicode hex="201D"/>
  <outline>
    <contour>
      <point x="556" y="893" type="line"/>
      <point x="616" y="1456" type="line"/>
      <point x="778" y="1456" type="line"/>
      <point x="665" y="893" type="line"/>
    </contour>
    <contour>
      <point x="204" y="893" type="line"/>
      <point x="264" y="1456" type="line"/>
      <point x="426" y="1456" type="line"/>
      <point x="313" y="893" type="line"/>
    </contour>
  </outline>
</glyph>
<glyph name="bullet" format="1">
  <advance width="990"/>
  <unicode hex="2022"/>
  <outline>
    <contour>
      <point x="497" y="391" type="curve" smooth="yes"/>
      <point x="315" y="391"/>
      <point x="181" y="530"/>
      <point x="181" y="696" type="curve" smooth="yes"/>
      <point x="181" y="867"/>
      <point x="317" y="1010"/>
      <point x="497" y="1010" type="curve" smooth="yes"/>
      <point x="677" y="1010"/>
      <point x="818" y="864"/>
      <point x="818" y="696" type="curve" smooth="yes"/>
      <point x="818" y="525"/>
      <point x="679" y="391"/>
    </contour>
  </outline>
</glyph>
<glyph name="perthousand" format="1">
  <advance width="2845"/>
  <unicode hex="2030"/>
  <outline>
    <component base="percent"/>
    <contour>
      <point x="2372" y="-10" type="curve" smooth="yes"/>
      <point x="2152" y="-10"/>
      <point x="2032" y="149"/>
      <point x="2032" y="412" type="curve" smooth="yes"/>
      <point x="2032" y="677"/>
      <point x="2152" y="842"/>
      <point x="2372" y="842" type="curve" smooth="yes"/>
      <point x="2588" y="842"/>
      <point x="2704" y="679"/>
      <point x="2704" y="413" type="curve" smooth="yes"/>
      <point x="2704" y="150"/>
      <point x="2586" y="-10"/>
    </contour>
    <contour>
      <point x="2372" y="90" type="curve" smooth="yes"/>
      <point x="2511" y="90"/>
      <point x="2578" y="205"/>
      <point x="2578" y="413" type="curve" smooth="yes"/>
      <point x="2578" y="624"/>
      <point x="2513" y="742"/>
      <point x="2372" y="742" type="curve" smooth="yes"/>
      <point x="2226" y="742"/>
      <point x="2158" y="622"/>
      <point x="2158" y="412" type="curve" smooth="yes"/>
      <point x="2158" y="203"/>
      <point x="2228" y="90"/>
    </contour>
  </outline>
</glyph>
<glyph name="guilsinglright" format="1">
  <advance width="660"/>
  <unicode hex="203A"/>
  <outline>
    <contour>
      <point x="124" y="174" type="line"/>
      <point x="378" y="545" type="line"/>
      <point x="132" y="912" type="line"/>
      <point x="267" y="912" type="line"/>
      <point x="534" y="545" type="line"/>
      <point x="262" y="174" type="line"/>
    </contour>
  </outline>
</glyph>
<glyph name="trademark" format="1">
  <advance width="1869"/>
  <unicode hex="2122"/>
  <outline>
    <contour>
      <point x="334" y="711" type="line"/>
      <point x="334" y="1386" type="line"/>
      <point x="69" y="1386" type="line"/>
      <point x="69" y="1471" type="line"/>
      <point x="709" y="1471" type="line"/>
      <point x="709" y="1386" type="line"/>
      <point x="440" y="1386" type="line"/>
      <point x="440" y="711" type="line"/>
    </contour>
    <contour>
      <point x="827" y="711" type="line"/>
      <point x="827" y="1471" type="line"/>
      <point x="961" y="1471" type="line"/>
      <point x="1241" y="851" type="line"/>
      <point x="1540" y="1471" type="line"/>
      <point x="1661" y="1471" type="line"/>
      <point x="1661" y="711" type="line"/>
      <point x="1569" y="711" type="line"/>
      <point x="1569" y="1341" type="line"/>
      <point x="1271" y="711" type="line"/>
      <point x="1206" y="711" type="line"/>
      <point x="919" y="1342" type="line"/>
      <point x="919" y="711" type="line"/>
    </contour>
  </outline>
</glyph>
<glyph name="partialdiff" format="1">
  <advance width="1166"/>
  <unicode hex="2202"/>
  <outline>
    <contour>
      <point x="498" y="95" type="curve" smooth="yes"/>
      <point x="755" y="95"/>
      <point x="877" y="373"/>
      <point x="908" y="657" type="curve"/>
      <point x="868" y="778"/>
      <point x="764" y="884"/>
      <point x="614" y="884" type="curve" smooth="yes"/>
      <point x="403" y="884"/>
      <point x="238" y="667"/>
      <point x="238" y="415" type="curve" smooth="yes"/>
      <point x="238" y="222"/>
      <point x="339" y="95"/>
    </contour>
    <contour>
      <point x="925" y="801" type="curve"/>
      <point x="925" y="824.705"/>
      <point x="927.049" y="877.866"/>
      <point x="927.049" y="907.669" type="curve" smooth="yes"/>
      <point x="927.049" y="1229.27"/>
      <point x="792.539" y="1422"/>
      <point x="569" y="1422" type="curve" smooth="yes"/>
      <point x="485" y="1422"/>
      <point x="385" y="1394"/>
      <point x="302" y="1336" type="curve"/>
      <point x="292" y="1454" type="line"/>
      <point x="370" y="1504"/>
      <point x="478" y="1541"/>
      <point x="594" y="1541" type="curve" smooth="yes"/>
      <point x="891" y="1541"/>
      <point x="1076" y="1328"/>
      <point x="1076" y="858" type="curve" smooth="yes"/>
      <point x="1076" y="422"/>
      <point x="881" y="-24"/>
      <point x="495" y="-24" type="curve" smooth="yes"/>
      <point x="228" y="-24"/>
      <point x="91" y="170"/>
      <point x="91" y="418" type="curve" smooth="yes"/>
      <point x="91" y="747"/>
      <point x="312" y="1002"/>
      <point x="589" y="1002" type="curve" smooth="yes"/>
      <point x="786" y="1002"/>
      <point x="884" y="877"/>
    </contour>
  </outline>
</glyph>
<glyph name="integral" format="1">
  <advance width="702"/>
  <unicode hex="222B"/>
  <outline>
    <contour>
      <point x="144" y="-294" type="curve" smooth="yes"/>
      <point x="65" y="-294"/>
      <point x="17" y="-274"/>
      <point x="17" y="-274" type="curve"/>
      <point x="17" y="-158" type="line"/>
      <point x="17" y="-158"/>
      <point x="74" y="-173"/>
      <point x="124" y="-173" type="curve" smooth="yes"/>
      <point x="273" y="-173"/>
      <point x="301" y="-93"/>
      <point x="301" y="56" type="curve" smooth="yes"/>
      <point x="301" y="1210" type="line" smooth="yes"/>
      <point x="301" y="1425"/>
      <point x="352" y="1584"/>
      <point x="578" y="1584" type="curve" smooth="yes"/>
      <point x="662" y="1584"/>
      <point x="694" y="1564"/>
      <point x="694" y="1564" type="curve"/>
      <point x="694" y="1450" type="line"/>
      <point x="694" y="1450"/>
      <point x="659" y="1463"/>
      <point x="603" y="1463" type="curve" smooth="yes"/>
      <point x="455" y="1463"/>
      <point x="435" y="1383"/>
      <point x="435" y="1234" type="curve" smooth="yes"/>
      <point x="435" y="81" type="line" smooth="yes"/>
      <point x="435" y="-134"/>
      <point x="370" y="-294"/>
    </contour>
  </outline>
</glyph>
<glyph name="notequal" format="1">
  <advance width="1343"/>
  <unicode hex="2260"/>
  <outline>
    <contour>
      <point x="454" y="48" type="line"/>
      <point x="351" y="63" type="line"/>
      <point x="483" y="330" type="line"/>
      <point x="171" y="330" type="line"/>
      <point x="171" y="435" type="line"/>
      <point x="535" y="435" type="line"/>
      <point x="695" y="741" type="line"/>
      <point x="171" y="741" type="line"/>
      <point x="171" y="846" type="line"/>
      <point x="743" y="846" type="line"/>
      <point x="882" y="1124" type="line"/>
      <point x="987" y="1108" type="line"/>
      <point x="857" y="846" type="line"/>
      <point x="1180" y="846" type="line"/>
      <point x="1180" y="741" type="line"/>
      <point x="807" y="741" type="line"/>
      <point x="647" y="435" type="line"/>
      <point x="1180" y="435" type="line"/>
      <point x="1180" y="330" type="line"/>
      <point x="596" y="330" type="line"/>
    </contour>
  </outline>
</glyph>
<glyph name="lessequal" format="1">
  <advance width="1350"/>
  <unicode hex="2264"/>
  <outline>
    <contour>
      <point x="213" y="0" type="line"/>
      <point x="213" y="103" type="line"/>
      <point x="1124" y="103" type="line"/>
      <point x="1124" y="0" type="line"/>
    </contour>
    <contour>
      <point x="1101" y="184" type="line"/>
      <point x="246" y="645" type="line"/>
      <point x="246" y="729" type="line"/>
      <point x="1107" y="1141" type="line"/>
      <point x="1107" y="1004" type="line"/>
      <point x="414" y="681" type="line"/>
      <point x="1101" y="319" type="line"/>
    </contour>
  </outline>
</glyph>
<glyph name="greaterequal" format="1">
  <advance width="1350"/>
  <unicode hex="2265"/>
  <outline>
    <contour>
      <point x="249" y="0" type="line"/>
      <point x="249" y="103" type="line"/>
      <point x="1161" y="103" type="line"/>
      <point x="1161" y="0" type="line"/>
    </contour>
    <contour>
      <point x="262" y="183" type="line"/>
      <point x="262" y="322" type="line"/>
      <point x="954" y="644" type="line"/>
      <point x="266" y="1006" type="line"/>
      <point x="266" y="1141" type="line"/>
      <point x="1122" y="680" type="line"/>
      <point x="1122" y="596" type="line"/>
    </contour>
  </outline>
</glyph>
<glyph name="lozenge" format="1">
  <advance width="1248"/>
  <unicode hex="25CA"/>
  <outline>
    <contour>
      <point x="621" y="70" type="line"/>
      <point x="1005" y="715" type="line"/>
      <point x="632" y="1363" type="line"/>
      <point x="247" y="717" type="line"/>
    </contour>
    <contour>
      <point x="575" y="-45" type="line"/>
      <point x="123" y="715" type="line"/>
      <point x="584" y="1478" type="line"/>
      <point x="676" y="1478" type="line"/>
      <point x="1132" y="716" type="line"/>
      <point x="667" y="-45" type="line"/>
    </contour>
  </outline>
</glyph>
